<svg xmlns="http://www.w3.org/2000/svg" viewBox="0 0 500 500"><g id="freepik--background-complete--inject-440"><rect x="299.62" y="43.56" width="163.83" height="294.3" style="fill:#ebebeb"></rect><rect x="306.17" y="52.09" width="149.05" height="277" style="fill:#fafafa"></rect><polygon points="470.38 340.51 463.45 337.86 463.45 38.56 470.38 38.56 470.38 340.51" style="fill:#e0e0e0"></polygon><path d="M342.7,231l38.71-36c4.91-4.56,11.32-9.47,17.63-7.22,3,1.08,5.31,3.67,8.29,4.91,5.94,2.47,12.73-1.1,17.3-5.64s8.17-10.2,13.71-13.49,14.14-2.87,16.87,3v39.15L399,239.8Z" style="fill:#f5f5f5"></path><path d="M306.17,208.51c14.26-5.81,28.49-.87,38.7,10.66,2.15,2.43,4.11,5.23,7.06,6.57,4,1.82,8.62.46,13,0a32.64,32.64,0,0,1,30.7,14.89L348,264l-41.82-.3Z" style="fill:#e0e0e0"></path><path d="M455.21,208.71c-9.39-4.54-17.66.95-26.33,6.76S412.16,228.72,402,231.06c-6.79,1.56-14.07.7-20.64,3-13.38,4.76-21.11,21.75-35.29,22.56-7.7.44-14.61-4.23-21.48-7.73s-12.29-6.82-18.41-2.14v82.3h149Z" style="fill:#ebebeb"></path><rect x="306.17" y="131.78" width="152.28" height="2.95" style="fill:#e0e0e0"></rect><rect x="306.17" y="197.74" width="152.28" height="2.95" style="fill:#e0e0e0"></rect><rect x="306.17" y="263.71" width="152.28" height="2.95" style="fill:#e0e0e0"></rect><rect x="278.84" y="231.33" width="203.7" height="7.53" transform="translate(145.59 615.79) rotate(-90)" style="fill:#e0e0e0"></rect><rect x="334.87" y="52.09" width="3.41" height="81.16" style="fill:#e0e0e0"></rect><rect x="364.29" y="52.09" width="3.41" height="81.16" style="fill:#e0e0e0"></rect><rect x="393.71" y="52.09" width="3.41" height="81.16" style="fill:#e0e0e0"></rect><rect x="423.13" y="52.09" width="3.41" height="81.16" style="fill:#e0e0e0"></rect><rect x="292.69" y="38.56" width="6.93" height="301.12" style="fill:#e0e0e0"></rect><rect x="292.69" y="35.53" width="177.69" height="8.03" style="fill:#e0e0e0"></rect><rect x="287.77" y="341.5" width="187.29" height="7.48" style="fill:#e0e0e0"></rect><polygon points="463.45 337.86 475.07 341.5 287.77 341.5 299.62 337.86 463.45 337.86" style="fill:#ebebeb"></polygon><path d="M89.26,68.17A9.74,9.74,0,0,1,89,65.88a17.86,17.86,0,0,0-.31-2.75A25.82,25.82,0,0,0,88,59.44a34.65,34.65,0,0,0-3.84-9.51,35.33,35.33,0,0,0-42-15.88,32.87,32.87,0,0,0-9,4.58,38.07,38.07,0,0,0-4,3.29,40.62,40.62,0,0,0-3.53,4,35,35,0,0,0-1,41.42,39.79,39.79,0,0,0,3.33,4.15A41.13,41.13,0,0,0,31.75,95a32.91,32.91,0,0,0,8.75,5A35.51,35.51,0,0,0,83.26,86.14a34.84,34.84,0,0,0,4.29-9.31,26.38,26.38,0,0,0,.9-3.65,18.72,18.72,0,0,0,.44-2.73,10.52,10.52,0,0,1,.37-2.28,9.78,9.78,0,0,1,0,2.31,16.59,16.59,0,0,1-.26,2.8A24.75,24.75,0,0,1,88.29,77a33.63,33.63,0,0,1-4.1,9.69,36.51,36.51,0,0,1-25,16.91,36.83,36.83,0,0,1-19.34-2,34.69,34.69,0,0,1-9.24-5.22,41.54,41.54,0,0,1-4.12-3.65,42.92,42.92,0,0,1-3.53-4.37A36.72,36.72,0,0,1,24,44.72a41.46,41.46,0,0,1,3.73-4.19A41,41,0,0,1,32,37.08a34.64,34.64,0,0,1,9.49-4.76,36.87,36.87,0,0,1,19.41-1A36.52,36.52,0,0,1,85.1,49.39a33.71,33.71,0,0,1,3.62,9.88,25.32,25.32,0,0,1,.56,3.8,16.74,16.74,0,0,1,.12,2.8A10.08,10.08,0,0,1,89.26,68.17Z" style="fill:#ebebeb"></path><path d="M82.06,45.67c.07.11-.58.68-1.83,1.61l-2.32,1.66c-.46.32-.94.67-1.47,1l-1.78.93a40.62,40.62,0,0,1-21.17,5.33l-3.2-.14-3.08-.49c-.5-.08-1-.15-1.5-.25L44.28,55c-1-.26-1.88-.48-2.77-.77a46.18,46.18,0,0,1-9-4.14c-4.83-2.92-7.18-5.57-7-5.74s2.82,2,7.68,4.52a53.57,53.57,0,0,0,8.85,3.62c.86.25,1.76.44,2.67.67l1.38.35,1.43.21,2.94.44,3.05.12A43.88,43.88,0,0,0,74,49.62l1.79-.77c.55-.29,1-.6,1.52-.86l2.46-1.35C81.18,45.91,82,45.56,82.06,45.67Z" style="fill:#ebebeb"></path><path d="M24.44,89.46c-.08-.11.57-.67,1.82-1.61l2.32-1.66c.46-.31.94-.67,1.47-1l1.78-.92A40.55,40.55,0,0,1,53,78.93l3.21.14,3.07.48c.5.08,1,.15,1.5.25l1.43.38c.95.26,1.88.49,2.77.77a45.9,45.9,0,0,1,9,4.14c4.83,2.92,7.18,5.57,7,5.74s-2.82-2-7.68-4.52a54.68,54.68,0,0,0-8.84-3.62c-.87-.25-1.77-.44-2.68-.67l-1.38-.34L59,81.46,56,81l-3-.13a43.88,43.88,0,0,0-20.51,4.61l-1.79.78c-.55.28-1,.59-1.52.85L26.68,88.5C25.32,89.22,24.52,89.57,24.44,89.46Z" style="fill:#ebebeb"></path><path d="M89.24,69c0,.55-16.15.6-36,.12s-36-1.32-36-1.87,16.15-.6,36-.11S89.25,68.46,89.24,69Z" style="fill:#ebebeb"></path><path d="M51.57,103.27c-.55,0-.6-16.14-.11-36s1.31-36,1.86-36,.6,16.14.12,36S52.12,103.29,51.57,103.27Z" style="fill:#ebebeb"></path><path d="M51.57,103.22c-.13.21-4.1-2.48-8.68-8.57A48.72,48.72,0,0,1,36.45,83a43.61,43.61,0,0,1-2.78-16.14,41.31,41.31,0,0,1,3.63-16,50.2,50.2,0,0,1,7-11.33c4.85-5.86,8.85-8.46,9-8.25s-3.43,3.18-7.88,9.11A53.88,53.88,0,0,0,39,51.57a41.44,41.44,0,0,0-3.33,15.29,43.6,43.6,0,0,0,2.52,15.47A52,52,0,0,0,44,93.84C48.2,100,51.77,103,51.57,103.22Z" style="fill:#ebebeb"></path><path d="M54.13,31.29c.13-.21,4.1,2.48,8.68,8.57a48.92,48.92,0,0,1,6.44,11.69A43.61,43.61,0,0,1,72,67.69a41.31,41.31,0,0,1-3.63,16,50.2,50.2,0,0,1-7,11.33c-4.85,5.86-8.85,8.46-9,8.25s3.43-3.17,7.88-9.11a53.88,53.88,0,0,0,6.46-11.19,41.44,41.44,0,0,0,3.33-15.29,43.6,43.6,0,0,0-2.52-15.47,52,52,0,0,0-5.86-11.51C57.5,34.53,53.93,31.51,54.13,31.29Z" style="fill:#ebebeb"></path></g><g id="freepik--Desk--inject-440"><path d="M478.83,464.74c0,.14-102.46.26-228.82.26s-228.84-.12-228.84-.26,102.44-.26,228.84-.26S478.83,464.59,478.83,464.74Z" style="fill:#263238"></path></g><g id="freepik--Drink--inject-440"><polygon points="51.33 415.11 58.5 465.02 84.57 465.02 91.13 415.11 51.33 415.11" style="fill:#455a64"></polygon><path d="M48.46,415.11c.13-3.35.9-6.35,3.46-8.32H91.13c2.15,1.63,2.8,4.78,3.09,8.32Z" style="fill:#455a64"></path><polygon points="54.44 406.79 57.75 401.92 84.92 401.92 87.81 406.79 54.44 406.79" style="fill:#455a64"></polygon><path d="M91,406.62c0,.14-8.42.26-18.81.26s-18.81-.12-18.81-.26,8.42-.26,18.81-.26S91,406.48,91,406.62Z" style="fill:#263238"></path><path d="M94.22,415.11c0,.14-10.15.26-22.67.26s-22.68-.12-22.68-.26,10.15-.26,22.68-.26S94.22,415,94.22,415.11Z" style="fill:#263238"></path><polygon points="52.95 426.38 89.65 426.38 87.5 442.73 55.3 442.73 52.95 426.38" style="fill:#263238"></polygon><path d="M69.92,348.6a1.62,1.62,0,0,1,.54.17,3.19,3.19,0,0,1,1.19,1.09,4.65,4.65,0,0,1,.71,2.45,6.41,6.41,0,0,1-1,3.23,32.85,32.85,0,0,1-2.35,3.3,9,9,0,0,0-1.89,4.05,6.9,6.9,0,0,0,1.41,4.63c1,1.45,2.23,2.79,3.37,4.31a13.49,13.49,0,0,1,1.48,2.43A7.16,7.16,0,0,1,74,377a8.14,8.14,0,0,1-1.88,4.84c-1,1.32-2.14,2.39-3.11,3.46a12.85,12.85,0,0,0-2.28,3.23,5.61,5.61,0,0,0-.5,3.16,4.72,4.72,0,0,0,.87,2.26,4.1,4.1,0,0,0,1.65,1.26s0,0-.14,0a1.37,1.37,0,0,1-.4-.13,3.26,3.26,0,0,1-1.27-1,5,5,0,0,1-1-2.35,5.75,5.75,0,0,1,.46-3.34A12.63,12.63,0,0,1,68.72,385c1-1.1,2.09-2.17,3-3.46A7.66,7.66,0,0,0,73.52,377a6.63,6.63,0,0,0-.59-2.52,12.92,12.92,0,0,0-1.43-2.33c-1.11-1.49-2.37-2.84-3.38-4.34a7.34,7.34,0,0,1-1.45-5,9.17,9.17,0,0,1,2-4.24,37.94,37.94,0,0,0,2.37-3.23,6.22,6.22,0,0,0,1-3.05,4.42,4.42,0,0,0-.6-2.34A3.53,3.53,0,0,0,69.92,348.6Z" style="fill:#263238"></path><path d="M76.5,348.6a1.62,1.62,0,0,1,.54.17,3.19,3.19,0,0,1,1.19,1.09,4.65,4.65,0,0,1,.71,2.45,6.51,6.51,0,0,1-1,3.23,32.85,32.85,0,0,1-2.35,3.3,9,9,0,0,0-1.89,4.05,7,7,0,0,0,1.4,4.63c1,1.45,2.24,2.79,3.38,4.31A13.49,13.49,0,0,1,80,374.26a7.16,7.16,0,0,1,.63,2.72,8.14,8.14,0,0,1-1.88,4.84c-1,1.32-2.14,2.39-3.11,3.46a12.85,12.85,0,0,0-2.28,3.23,5.61,5.61,0,0,0-.5,3.16,4.72,4.72,0,0,0,.87,2.26,4.1,4.1,0,0,0,1.65,1.26s0,0-.14,0a1.37,1.37,0,0,1-.4-.13,3.26,3.26,0,0,1-1.27-1,5,5,0,0,1-1-2.35,5.75,5.75,0,0,1,.46-3.34A12.63,12.63,0,0,1,75.3,385c1-1.1,2.09-2.17,3-3.46A7.66,7.66,0,0,0,80.1,377a6.82,6.82,0,0,0-.59-2.52,13.51,13.51,0,0,0-1.43-2.33c-1.11-1.49-2.37-2.84-3.38-4.34a7.34,7.34,0,0,1-1.45-5,9.26,9.26,0,0,1,2-4.24,36.12,36.12,0,0,0,2.38-3.23,6.22,6.22,0,0,0,1-3.05,4.42,4.42,0,0,0-.6-2.34A3.53,3.53,0,0,0,76.5,348.6Z" style="fill:#263238"></path></g><g id="freepik--Character--inject-440"><path d="M303.55,331l-23.4,77L231,431.39l3.26,26.43,46.18-11c24.22-4.9,36.93-14,42.3-36.7L332,379.84Z" style="fill:#148B98"></path><path d="M421.73,309a7.52,7.52,0,0,1-1.39.15,34.57,34.57,0,0,0-3.76.46,17.32,17.32,0,0,0-5.24,1.87,24.69,24.69,0,0,0-5.48,4.07,26.47,26.47,0,0,0-4,5.57,48.46,48.46,0,0,0-2.41,5.08c-.61,1.49-1.05,2.71-1.36,3.56a9.39,9.39,0,0,1-.5,1.3,7.6,7.6,0,0,1,.32-1.36c.25-.87.65-2.11,1.22-3.62a42.87,42.87,0,0,1,2.33-5.17,26.26,26.26,0,0,1,4-5.7,24.29,24.29,0,0,1,5.61-4.12,16.82,16.82,0,0,1,5.4-1.81,26.49,26.49,0,0,1,3.81-.32A7.67,7.67,0,0,1,421.73,309Z" style="fill:#263238"></path><path d="M249.51,436.12l14.56-9.66a7.25,7.25,0,0,1,4.89-1L280.1,427l25.54,12.81,12.85-1L317.44,461s-11.38,0-15.82-1-10.46-5.34-10.46-5.34,1.37,2.33.53,4-7,4.11-7,4.11-4.32,1.26-4.9-1.78c0,0-7.53.58-7.94-5.44,0,0-11.32-2.58-9.4-7.75,1.43-3.84,2.82-6.63,2.82-6.63l3.79-7.29-3.75-.87s-7.14,4.73-10.15,5.06S249.51,436.12,249.51,436.12Z" style="fill:#ffbe9d"></path><path d="M277.72,438.59a30.12,30.12,0,0,0-2.54,1.82,12.66,12.66,0,0,0-3.94,6.2,13.81,13.81,0,0,0-.16,4.08c.11,1.27.3,2.41.47,3.36a25,25,0,0,1,.53,3.1,3,3,0,0,1-.29-.8c-.15-.52-.36-1.28-.58-2.23a30.66,30.66,0,0,1-.58-3.39,13.55,13.55,0,0,1,.14-4.23,12.3,12.3,0,0,1,4.19-6.36,11,11,0,0,1,2-1.25A2.19,2.19,0,0,1,277.72,438.59Z" style="fill:#eb996e"></path><path d="M283.42,445.19s-.29,0-.8,0a4.3,4.3,0,0,0-2,.58,5.41,5.41,0,0,0-2.09,2.25,7.78,7.78,0,0,0-.67,3.74,22.72,22.72,0,0,0,.6,3.87c.26,1.19.5,2.25.74,3.13.47,1.78.9,2.83.83,2.86a2.77,2.77,0,0,1-.39-.71,20,20,0,0,1-.77-2.05c-.28-.88-.57-1.95-.84-3.13a20.59,20.59,0,0,1-.66-3.95,8,8,0,0,1,.76-4,5.43,5.43,0,0,1,2.33-2.35,4,4,0,0,1,2.17-.47A1.64,1.64,0,0,1,283.42,445.19Z" style="fill:#eb996e"></path><path d="M287.33,454.78c-.05,0,.06-.3.4-.57a2.94,2.94,0,0,1,1.57-.58,2.1,2.1,0,0,1,1.62.46c.34.31.37.62.32.63s-.21-.18-.52-.36a2.43,2.43,0,0,0-1.38-.24A6.37,6.37,0,0,0,287.33,454.78Z" style="fill:#eb996e"></path><path d="M288.27,450.34c.05,0,.27.17.39.59a3.92,3.92,0,0,1,.11,1.66,3.33,3.33,0,0,1-.6,1.57c-.29.35-.57.44-.6.39s.14-.24.31-.58a4.53,4.53,0,0,0,.4-1.45,7.42,7.42,0,0,0,.05-1.52C288.3,450.61,288.21,450.38,288.27,450.34Z" style="fill:#eb996e"></path><path d="M262.46,447.86a3.37,3.37,0,0,1,.32-.9c.23-.56.58-1.36,1-2.36.89-2,2.16-4.71,3.58-7.7.51-1.08,1-2.11,1.47-3.07v0l0,0A6.86,6.86,0,0,1,272,432a7,7,0,0,1,2.77-.21,5.9,5.9,0,0,1,1.75.48,1.8,1.8,0,0,1,.57.33,12.21,12.21,0,0,0-2.35-.52,7,7,0,0,0-5.46,2l0-.06c-.46,1-.95,2-1.45,3.08-1.42,3-2.74,5.7-3.71,7.64-.48,1-.89,1.76-1.17,2.29A4,4,0,0,1,262.46,447.86Z" style="fill:#eb996e"></path><path d="M447.68,404.25s-2.27-68.68-5.16-78.17S436.1,311.37,429,306.75c-8.14-5.26-36.6-11.22-37.57-12.09l-47.88.95-2.87.32a42.2,42.2,0,0,0-35.58,28.32q-.3.9-.57,1.83c-5.8,19.84,16.95,48.39,16.95,47.13.05,5.93.44,11.61,1.45,15.66,3.31,13.21,32.19,35.38,33.85,41.83s2.48,34.05,2.48,34.05,45.12.34,65.3.24l51.52-.24Z" style="fill:#148B98"></path><path d="M319.79,322.81s.1.27.26.78a23.07,23.07,0,0,1,.61,2.3,45.26,45.26,0,0,1,1,8.65,111.43,111.43,0,0,1-.46,12.92c-.38,4.84-1,10.15-1.24,15.75a79.8,79.8,0,0,0,.52,15.73A46.3,46.3,0,0,0,324,391.25a44.76,44.76,0,0,0,4.36,7.49c.61.82,1.12,1.44,1.44,1.87a4.29,4.29,0,0,1,.48.67,5.93,5.93,0,0,1-.55-.61c-.35-.41-.89-1-1.52-1.82a41.14,41.14,0,0,1-4.52-7.45,45.42,45.42,0,0,1-3.65-12.4,78.33,78.33,0,0,1-.57-15.82c.28-5.61.88-10.92,1.28-15.76a117.66,117.66,0,0,0,.56-12.87,48.64,48.64,0,0,0-.88-8.63c-.17-1-.4-1.77-.51-2.3A4.36,4.36,0,0,1,319.79,322.81Z" style="fill:#263238"></path><g style="opacity:0.30000000000000004"><path d="M435.16,354.25a699.36,699.36,0,0,0-23.23,96l-5.31,9.4c6.68-.93,12.27-5.87,15.67-11.7s5-12.52,6.49-19.09C434.45,404.32,440.15,378.9,435.16,354.25Z"></path></g><path d="M315,436.36l66.77-7.78s14-84.45,14.34-85.95,5.06-27.79,18.29-30.05,25.29,3,26.07,15.78c.62,10.21-14.2,83.57-23.54,117.54-2.69,9.77-13.4,18.42-23.86,18.62-27.29.51-77.76,0-77.76,0Z" style="fill:#148B98"></path><path d="M396.06,342.63c-.26,1.62-5.57,33.89-14.14,86l0,.14-.14,0c-19.67,3.37-42.11,3.82-66.54,8l.2-.24c.09,7.82,0,19.53.08,28l-.24-.24,25.26.17c14.13.07,27.93.08,41.25,0l9.9-.12a23.5,23.5,0,0,0,9.39-1.78,28.16,28.16,0,0,0,13.71-12.13l.54-1,.45-1a17.75,17.75,0,0,0,.77-2.11c.44-1.43.79-2.9,1.18-4.34.79-2.87,1.49-5.73,2.2-8.54q2.1-8.43,3.93-16.41c2.45-10.6,4.59-20.52,6.5-29.58,3.76-18.12,6.55-32.85,8.19-43.07.41-2.56.77-4.83,1-6.8.14-1,.26-1.9.38-2.74s.16-1.59.23-2.27a27,27,0,0,0,.21-3.09c0-.69.05-1.05.05-1.05s0,.35,0,1.05a24.82,24.82,0,0,1-.16,3.1c-.06.68-.14,1.44-.21,2.28s-.23,1.75-.35,2.73c-.24,2-.59,4.26-1,6.82-1.58,10.23-4.32,25-8,43.11-1.88,9.07-4,19-6.44,29.6q-1.82,8-3.9,16.42c-.71,2.82-1.41,5.68-2.19,8.56-.4,1.44-.74,2.89-1.18,4.35a17.51,17.51,0,0,1-.79,2.16l-.46,1.06-.54,1A28.66,28.66,0,0,1,401.24,463a23.93,23.93,0,0,1-9.56,1.82l-9.9.13c-13.33.11-27.13.1-41.26,0l-25.27-.18H315v-.24c-.09-8.44,0-20.16-.06-28v-.2l.19,0c24.44-4.16,46.88-4.58,66.55-7.93l-.16.16c4.36-26.08,8-47.56,10.46-62.53,1.27-7.47,2.27-13.32,3-17.31.35-2,.62-3.49.8-4.53S396.06,342.63,396.06,342.63Z" style="fill:#263238"></path><g style="opacity:0.30000000000000004"><path d="M319.09,368.7c-.17-10.5,2.83-21.51,2.78-32.91a116.35,116.35,0,0,0-6.87,28c-.76,6.57-.95,13.33.93,19.67s6.07,12.24,12.12,14.9C321.78,389.93,319.26,379.19,319.09,368.7Z"></path></g><path d="M317,242.2a17.54,17.54,0,0,1-6.89-17.44,3.26,3.26,0,0,0,0-2.18,3.21,3.21,0,0,0-1.48-1.15,13,13,0,0,1-6.51-7.85,10.06,10.06,0,0,1,2.49-9.69c-5.1-1.75-7.32-8.6-5-13.48s8.17-7.45,13.53-6.87c-1.88-2.71-1.12-6.65,1.06-9.13s5.43-3.71,8.66-4.34c4.34-.84,9.56-.4,12.09,3.24.21-2.71,2.9-4.57,5.52-5.25,7-1.83,15.1,2.7,17.23,9.68,2.22-1.68,4.79-3.11,7.57-3.16s5.74,1.62,6.39,4.33c1.15-2.5,4.13-3.56,6.85-3.84a9.85,9.85,0,0,1,5.78.86,4.85,4.85,0,0,1,2.62,4.91,7.75,7.75,0,0,1,6.83,13.84,9.87,9.87,0,0,1,.88,16.79c1.66.12,2.52,2.35,1.79,3.85a5.25,5.25,0,0,1-4.08,2.54q1.08,8.58,2.17,17.15c.47,3.69.93,7.46.23,11.11s-2.78,7.24-6.14,8.79" style="fill:#263238"></path><path d="M315,225.67c-1-13.92,11.91-29.75,25.81-30.18l45.58,2.38.86,7.45,5.87,94.22L351.47,336.6l-5.27-42.38s-18-.51-24.74-23C318.09,260,316.1,241.15,315,225.67Z" style="fill:#ffbe9d"></path><path d="M323.17,242.83a3,3,0,0,0,3.24,2.59,2.85,2.85,0,0,0,2.66-3.08,3,3,0,0,0-3.23-2.59A2.84,2.84,0,0,0,323.17,242.83Z" style="fill:#263238"></path><path d="M320.36,234.88c.41.33,2.41-1.63,5.58-2s5.69.84,6,.4c.15-.19-.32-.84-1.43-1.44a8.17,8.17,0,0,0-4.86-.8,7.77,7.77,0,0,0-4.37,2.12C320.39,234,320.15,234.73,320.36,234.88Z" style="fill:#263238"></path><path d="M352.91,240a3,3,0,0,0,3.24,2.59,2.84,2.84,0,0,0,2.66-3.08,3,3,0,0,0-3.24-2.59A2.85,2.85,0,0,0,352.91,240Z" style="fill:#263238"></path><path d="M351.53,231.89c.42.34,2.42-1.63,5.58-2s5.7.84,6,.4c.14-.19-.32-.84-1.44-1.43a8.07,8.07,0,0,0-4.85-.81,7.77,7.77,0,0,0-4.38,2.12C351.56,231,351.33,231.74,351.53,231.89Z" style="fill:#263238"></path><path d="M343.26,256.33c0-.18-2-.25-5.26-.22-.82,0-1.61,0-1.82-.57a4.18,4.18,0,0,1,.21-2.47c.49-2.07,1-4.24,1.55-6.51,2.11-9.25,3.52-16.81,3.15-16.89s-2.39,7.35-4.5,16.6c-.5,2.27-1,4.45-1.44,6.52a4.8,4.8,0,0,0,0,3.24,2.06,2.06,0,0,0,1.49,1,5.44,5.44,0,0,0,1.4,0C341.28,256.77,343.27,256.51,343.26,256.33Z" style="fill:#263238"></path><path d="M346.2,294.22a58.69,58.69,0,0,0,29.57-12.44s-5.48,18.35-28.71,19.35Z" style="fill:#eb996e"></path><path d="M345.64,263.8a5.77,5.77,0,0,1,4.82-2.83,5.22,5.22,0,0,1,3.85,1.45,3.35,3.35,0,0,1,.77,3.75,3.86,3.86,0,0,1-4,1.62,11.9,11.9,0,0,1-4.37-1.87,3.28,3.28,0,0,1-1-.81,1.07,1.07,0,0,1-.16-1.18" style="fill:#eb996e"></path><path d="M352.86,257.25c-.51,0-.05,3.49-2.65,6.34s-6.31,3-6.27,3.46c0,.22.9.56,2.45.39a8.61,8.61,0,0,0,5.26-2.7,7.51,7.51,0,0,0,2-5.28C353.6,258,353.1,257.2,352.86,257.25Z" style="fill:#263238"></path><path d="M349,220.67c.43.82,3.53,0,7.3-.08s6.91.54,7.29-.3c.17-.4-.46-1.14-1.78-1.81a12.59,12.59,0,0,0-11.12.29C349.43,219.51,348.84,220.28,349,220.67Z" style="fill:#263238"></path><path d="M320.26,225.53c.66.64,2.74-.41,5.35-.8s4.9-.18,5.31-1c.17-.39-.27-1.07-1.34-1.62a7.79,7.79,0,0,0-8.58,1.46C320.17,224.42,320,225.21,320.26,225.53Z" style="fill:#263238"></path><path d="M320.8,197.85a11.23,11.23,0,0,0,17.43,11.53c-1.32,1.67-.7,4.33.91,5.72a8.15,8.15,0,0,0,6,1.58,15.55,15.55,0,0,0,11.33-6.36,11.36,11.36,0,0,0,17.19,6.6,10.8,10.8,0,0,0-.67,12.14,10.41,10.41,0,0,0,19.17-4.55A11.72,11.72,0,0,0,394.27,206a7,7,0,0,0,3.69-6,14.43,14.43,0,0,0-1.71-7.07c-2.62-5.39-7.11-10.07-12.81-11.87s-12.59-.2-16.18,4.6a3.32,3.32,0,0,1-1.46,1.35,2.91,2.91,0,0,1-2.49-.92c-3.19-2.57-6.53-5.35-10.59-5.89a11,11,0,0,0-11.54,7.3c-3.36-4.34-9.63-6.53-14.64-4.32S319,192.47,322.08,197" style="fill:#263238"></path><path d="M381.42,230.51A49.75,49.75,0,0,0,386,243.87c.91,1.78,2.22,3.72,4.21,3.89,1.81.16,3.45-1.33,4.05-3a11.4,11.4,0,0,0,.13-5.42,146.74,146.74,0,0,0-4.6-18.88" style="fill:#263238"></path><path d="M386.92,233.47c.27-.18,11-5.64,12.81,6.07s-10.29,11.11-10.36,10.78S386.92,233.47,386.92,233.47Z" style="fill:#ffbe9d"></path><path d="M392.25,245.33c.05-.05.23.11.59.22a2,2,0,0,0,1.53-.21c1.16-.64,1.9-2.77,1.63-4.89a6.69,6.69,0,0,0-1-2.83,2.36,2.36,0,0,0-1.76-1.33,1,1,0,0,0-1.12.74c-.1.35,0,.58-.05.61s-.28-.16-.26-.66a1.31,1.31,0,0,1,.34-.81,1.57,1.57,0,0,1,1.08-.47,2.89,2.89,0,0,1,2.4,1.49,7,7,0,0,1,1.21,3.16c.28,2.37-.58,4.77-2.19,5.52a2.18,2.18,0,0,1-1.91,0C392.32,245.61,392.21,245.36,392.25,245.33Z" style="fill:#eb996e"></path><path d="M356.72,207.92a1.49,1.49,0,0,1-.35.14c-.24.08-.59.19-1.06.31a16.5,16.5,0,0,1-4.14.56,11.78,11.78,0,0,1-3-.38,8.34,8.34,0,0,1-5.69-4.77,6.32,6.32,0,0,1-.26-4.51l.42.28a15.59,15.59,0,0,1-8.95,4.12,15.14,15.14,0,0,1-5.46-.36,9.7,9.7,0,0,1-2.66-1.09,5.52,5.52,0,0,1-2-2.18,7.75,7.75,0,0,1-.74-3.37,22.46,22.46,0,0,1,.21-3.31,11.26,11.26,0,0,1,.81-3.14,3.73,3.73,0,0,1,2.32-2.19l.2.53a9.31,9.31,0,0,1-6.05.58,10,10,0,0,1-4.87-2.66,8.45,8.45,0,0,1-2.34-4.36,9.89,9.89,0,0,1,3.2-9.32,6.08,6.08,0,0,1,1.81-1.13,17.66,17.66,0,0,0-1.69,1.27,9.84,9.84,0,0,0-2.87,5,9.57,9.57,0,0,0,0,4.07,8,8,0,0,0,2.27,4.1,9.59,9.59,0,0,0,4.65,2.49,8.81,8.81,0,0,0,5.69-.58l.2.54a3.17,3.17,0,0,0-1.95,1.88,10.35,10.35,0,0,0-.75,3c-.24,2.08-.48,4.38.48,6.32a6.17,6.17,0,0,0,4.29,3,14.41,14.41,0,0,0,5.25.36,15.06,15.06,0,0,0,8.66-3.92l.77-.72-.35,1a5.86,5.86,0,0,0,.2,4.15,8.1,8.1,0,0,0,2.32,3.06,8.26,8.26,0,0,0,3,1.54,11,11,0,0,0,2.89.42,18,18,0,0,0,4.11-.4A12.13,12.13,0,0,1,356.72,207.92Z" style="fill:#fff"></path><path d="M319.89,207.74s-.22.23-.73.47a6.13,6.13,0,0,1-2.33.58,5.92,5.92,0,0,1-3.48-.83,2.93,2.93,0,0,1-1.34-1.78,2.23,2.23,0,0,1,.77-2.31l.3.51-.2.09a9.3,9.3,0,0,1-7.88-.23,8,8,0,0,1-2-1.4c-.41-.41-.59-.67-.56-.7a16.64,16.64,0,0,0,2.73,1.72,9.32,9.32,0,0,0,7.46.06l.18-.08,2.68-1.15-2.38,1.67a1.65,1.65,0,0,0-.54,1.69,2.5,2.5,0,0,0,1.07,1.46,5.78,5.78,0,0,0,3.17.86A10.2,10.2,0,0,0,319.89,207.74Z" style="fill:#fff"></path><path d="M400.21,247.68a5.32,5.32,0,0,1,2.07,1.1,12.3,12.3,0,0,1,4,5,11,11,0,0,1-.38,9.47,10.66,10.66,0,0,1-10.05,5.55,9.79,9.79,0,0,1-5.74-2.35,12.65,12.65,0,0,1-3.41-4.62,11.09,11.09,0,0,1,.12-9.49,9.7,9.7,0,0,1,4.66-4.4,4.44,4.44,0,0,1,2.29-.53c0,.11-.8.24-2.09.94a9.85,9.85,0,0,0-4.12,4.37,10.38,10.38,0,0,0,.13,8.67c1.35,3,4.34,6,8.24,6.23a9.63,9.63,0,0,0,9-4.89,10.29,10.29,0,0,0,.57-8.64,12.89,12.89,0,0,0-3.56-4.94C400.89,248.17,400.16,247.77,400.21,247.68Z" style="fill:#455a64"></path><path d="M334,248.64a22.65,22.65,0,0,0-.52-3.32,13.66,13.66,0,0,0-5-7.44,13.46,13.46,0,0,0-12.78-1.9,12.29,12.29,0,0,0-3.41,1.84,12.64,12.64,0,0,0-2.84,2.86,13.42,13.42,0,0,0,0,15.92,13.51,13.51,0,0,0,6.26,4.71,13.7,13.7,0,0,0,7.09.6,13.4,13.4,0,0,0,5.69-2.51,13.68,13.68,0,0,0,5-7.43,22.65,22.65,0,0,0,.52-3.33,4.2,4.2,0,0,1,0,.88,6.16,6.16,0,0,1-.08,1.06,9,9,0,0,1-.26,1.44,13.67,13.67,0,0,1-5,7.68,13.9,13.9,0,0,1-13.17,2.06,14,14,0,0,1-6.51-4.86,13.9,13.9,0,0,1,0-16.52,13,13,0,0,1,3-3,12.75,12.75,0,0,1,3.54-1.89,13.83,13.83,0,0,1,13.17,2.06,13.6,13.6,0,0,1,5,7.68,8.92,8.92,0,0,1,.26,1.43,6.23,6.23,0,0,1,.08,1.06A4.2,4.2,0,0,1,334,248.64Z" style="fill:#263238"></path><path d="M369.35,246.3a24.08,24.08,0,0,0-.53-3.33,13.6,13.6,0,0,0-5-7.43,13.46,13.46,0,0,0-12.78-1.9,12.29,12.29,0,0,0-3.41,1.84,12.68,12.68,0,0,0-2.85,2.86,13.44,13.44,0,0,0,0,15.92,12.68,12.68,0,0,0,2.85,2.86A12.29,12.29,0,0,0,351,259a13.57,13.57,0,0,0,7.08.61,13.39,13.39,0,0,0,5.7-2.51,13.66,13.66,0,0,0,5-7.44,24.55,24.55,0,0,0,.52-3.32,5.35,5.35,0,0,1,0,.88,6.23,6.23,0,0,1-.08,1.06,10.2,10.2,0,0,1-.26,1.43A13.83,13.83,0,0,1,358.2,260a13.88,13.88,0,0,1-7.33-.58,12.89,12.89,0,0,1-3.54-1.89,13.19,13.19,0,0,1-3-3,13.9,13.9,0,0,1,0-16.52,13.19,13.19,0,0,1,3-3,12.89,12.89,0,0,1,3.54-1.89A13.85,13.85,0,0,1,364,235.24a13.64,13.64,0,0,1,5,7.68,10.31,10.31,0,0,1,.26,1.44,6.23,6.23,0,0,1,.08,1.06A5.35,5.35,0,0,1,369.35,246.3Z" style="fill:#263238"></path><path d="M342.42,243.41c-.06.07-.49-.3-1.29-.67a6.92,6.92,0,0,0-6.58.47c-.74.48-1.12.9-1.19.85s.24-.56,1-1.15a6.22,6.22,0,0,1,3.4-1.29,6.36,6.36,0,0,1,3.56.79C342.11,242.9,342.46,243.38,342.42,243.41Z" style="fill:#263238"></path><path d="M388.17,234.16c0,.13-4.35,1.54-9.81,3.13a101.82,101.82,0,0,1-9.95,2.63,101,101,0,0,1,9.81-3.13A101,101,0,0,1,388.17,234.16Z" style="fill:#263238"></path><path d="M319.25,258.67a1.64,1.64,0,0,1-.68,0,8.55,8.55,0,0,1-1.81-.44,9.77,9.77,0,0,1-6.47-9.63,8.42,8.42,0,0,1,.28-1.84,1.81,1.81,0,0,1,.25-.64c.09,0-.18,1-.16,2.49a10.08,10.08,0,0,0,6.23,9.28C318.3,258.48,319.27,258.58,319.25,258.67Z" style="fill:#fff"></path><path d="M346.31,255.23s-.24-.17-.57-.58a10.92,10.92,0,0,1-1.19-1.84A13,13,0,0,1,345.67,239a10.63,10.63,0,0,1,1.47-1.63c.39-.35.63-.51.65-.48s-.8.82-1.82,2.32a13.56,13.56,0,0,0-1.09,13.46C345.64,254.3,346.38,255.18,346.31,255.23Z" style="fill:#fff"></path><path d="M350.93,257.78c-.07.13-.55,0-1.09-.25s-.91-.59-.85-.72.55,0,1.09.25S351,257.65,350.93,257.78Z" style="fill:#fff"></path><path d="M261.93,464.74H123.5l-20.85-95.32a7.42,7.42,0,0,1,7.27-9l122.71.27a7.41,7.41,0,0,1,7.23,5.79Z" style="fill:#e0e0e0"></path><path d="M261.93,464.74h65.52a8.42,8.42,0,0,0-8.42-8.42H254.48Z" style="fill:#e0e0e0"></path><path d="M254.48,464.74a1.4,1.4,0,0,1-.1-.26c0-.21-.13-.47-.22-.78-.19-.73-.46-1.74-.8-3-.68-2.61-1.64-6.41-2.8-11.11-2.31-9.4-5.36-22.41-8.64-36.81s-6.28-27.42-8.5-36.84l-2.64-11.15-.7-3c-.07-.33-.13-.59-.18-.8s0-.27,0-.27a1.4,1.4,0,0,1,.1.26c0,.21.13.46.22.78.19.73.46,1.74.8,3,.68,2.62,1.64,6.42,2.8,11.12,2.31,9.39,5.36,22.41,8.64,36.81s6.28,27.42,8.5,36.83l2.64,11.15c.3,1.29.53,2.31.7,3,.07.32.13.58.18.79S254.48,464.73,254.48,464.74Z" style="fill:#263238"></path><path d="M174.24,402c-2.2-.47-4.3,1.55-4.79,3.75a6.49,6.49,0,0,0,2.56,6.63,6,6,0,0,0,7-.3,5.57,5.57,0,0,0,1.25-6.83c-1.27-2.17-5.92-4.08-8.17-3" style="fill:#fff"></path></g></svg>